<svg width="200" height="75" viewBox="0 0 200 75" fill="none" xmlns="http://www.w3.org/2000/svg">
<g clip-path="url(#clip0_207_12)">
<path d="M24.7454 11.1094C25.708 11.1161 26.6701 11.1228 27.5886 11.1228H36.9334C37.8518 11.1228 38.8139 11.1161 39.7766 11.1094C42.3683 11.0913 44.9637 11.0733 46.7205 11.1858C53.1153 11.5953 57.5256 15.47 58.0927 22.0539C58.2271 24.4198 58.2239 27.2699 58.2201 30.631C58.2193 31.2079 58.2187 31.8008 58.2187 32.408V41.7528C58.2187 42.3599 58.2193 42.9519 58.2201 43.5287C58.2239 46.8904 58.2271 49.7408 58.0927 52.1069C57.5256 58.6908 53.1153 62.5656 46.7205 62.975C44.9637 63.0876 42.3683 63.0695 39.7766 63.0515C38.8139 63.0447 37.8518 63.0381 36.9334 63.0381H27.5886C26.6701 63.0381 25.708 63.0447 24.7454 63.0515C22.1538 63.0695 19.5583 63.0876 17.8016 62.975C11.4067 62.5656 6.99641 58.6908 6.42937 52.1069C6.29493 49.7409 6.29819 46.8909 6.30201 43.5298C6.30268 42.9529 6.30335 42.3599 6.30335 41.7528V32.408C6.30335 31.8008 6.30268 31.2089 6.30201 30.632C6.29819 27.2709 6.29493 24.4198 6.42937 22.0539C6.99641 15.47 11.4067 11.5953 17.8016 11.1858C19.5583 11.0733 22.1538 11.0913 24.7454 11.1094Z" fill="url(#paint0_linear_207_12)"/>
<g filter="url(#filter0_dddddd_207_12)">
<path d="M14.7432 29.6192C14.7432 28.297 15.8151 27.2251 17.1374 27.2251H33.8965C37.2369 27.2251 39.9448 29.933 39.9448 33.2735V44.4252C39.9448 45.7475 38.873 46.8193 37.5507 46.8193H20.7916C17.4512 46.8193 14.7432 44.1114 14.7432 40.771V29.6192Z" fill="url(#paint1_linear_207_12)"/>
<path d="M17.1371 27.5085H33.8962C37.08 27.5085 39.661 30.0896 39.661 33.2734V44.4251C39.661 45.5908 38.7161 46.5357 37.5504 46.5357H20.7913C17.6074 46.5357 15.0264 43.9547 15.0264 40.7709V29.6191C15.0264 28.4534 15.9714 27.5085 17.1371 27.5085Z" stroke="url(#paint2_linear_207_12)" stroke-width="0.567037"/>
</g>
<g filter="url(#filter1_dddddd_207_12)">
<path d="M41.457 34.1623C41.457 33.3473 41.8077 32.5717 42.4195 32.0335L47.2211 27.8096C48.2387 26.9145 49.8365 27.637 49.8365 28.9922V45.1001C49.8365 46.4427 48.2647 47.1697 47.2417 46.3005L42.834 42.5557C41.9606 41.8136 41.457 40.7252 41.457 39.5789V34.1623Z" fill="url(#paint3_linear_207_12)"/>
<path d="M42.6065 32.2465L47.408 28.0226C48.2425 27.2886 49.5527 27.881 49.5527 28.9923V45.1003C49.5527 46.2011 48.2638 46.7974 47.4249 46.0845L43.0173 42.3398C42.2072 41.6514 41.7402 40.642 41.7402 39.579V34.1624C41.7402 33.4289 42.0558 32.7309 42.6065 32.2465Z" stroke="url(#paint4_linear_207_12)" stroke-width="0.567037"/>
</g>
<path d="M73 52V23.2H82.6L90.6 50.96H87.12L95.12 23.2H104.76V52H98.68V24.92H99.72L91.92 52H85.56L77.84 25.16H78.84V52H73ZM111.142 52V23.2H117.302V52H111.142ZM114.022 52V47.28H132.582V52H114.022ZM114.022 39.6V34.96H131.182V39.6H114.022ZM114.022 27.92V23.2H132.102V27.92H114.022ZM138.581 52V23.2H144.741V52H138.581ZM141.461 52V47.28H160.021V52H141.461ZM141.461 39.6V34.96H158.621V39.6H141.461ZM141.461 27.92V23.2H159.541V27.92H141.461ZM174.263 52V27.92H164.863V23.2H189.823V27.92H180.423V52H174.263Z" fill="white"/>
</g>
<defs>
<filter id="filter0_dddddd_207_12" x="10.2069" y="25.524" width="34.2738" height="28.6668" filterUnits="userSpaceOnUse" color-interpolation-filters="sRGB">
<feFlood flood-opacity="0" result="BackgroundImageFix"/>
<feColorMatrix in="SourceAlpha" type="matrix" values="0 0 0 0 0 0 0 0 0 0 0 0 0 0 0 0 0 0 127 0" result="hardAlpha"/>
<feOffset dy="0.155601"/>
<feGaussianBlur stdDeviation="0.057319"/>
<feColorMatrix type="matrix" values="0 0 0 0 0.0509804 0 0 0 0 0.121569 0 0 0 0 0.396078 0 0 0 0.189957 0"/>
<feBlend mode="multiply" in2="BackgroundImageFix" result="effect1_dropShadow_207_12"/>
<feColorMatrix in="SourceAlpha" type="matrix" values="0 0 0 0 0 0 0 0 0 0 0 0 0 0 0 0 0 0 127 0" result="hardAlpha"/>
<feOffset dy="0.305287"/>
<feGaussianBlur stdDeviation="0.127482"/>
<feColorMatrix type="matrix" values="0 0 0 0 0.0509804 0 0 0 0 0.121569 0 0 0 0 0.396078 0 0 0 0.368551 0"/>
<feBlend mode="multiply" in2="effect1_dropShadow_207_12" result="effect2_dropShadow_207_12"/>
<feColorMatrix in="SourceAlpha" type="matrix" values="0 0 0 0 0 0 0 0 0 0 0 0 0 0 0 0 0 0 127 0" result="hardAlpha"/>
<feOffset dy="0.469499"/>
<feGaussianBlur stdDeviation="0.21833"/>
<feColorMatrix type="matrix" values="0 0 0 0 0.0509804 0 0 0 0 0.121569 0 0 0 0 0.396078 0 0 0 0.3 0"/>
<feBlend mode="multiply" in2="effect2_dropShadow_207_12" result="effect3_dropShadow_207_12"/>
<feColorMatrix in="SourceAlpha" type="matrix" values="0 0 0 0 0 0 0 0 0 0 0 0 0 0 0 0 0 0 127 0" result="hardAlpha"/>
<feOffset dy="0.688904"/>
<feGaussianBlur stdDeviation="0.69336"/>
<feColorMatrix type="matrix" values="0 0 0 0 0.0509804 0 0 0 0 0.121569 0 0 0 0 0.396078 0 0 0 0.3 0"/>
<feBlend mode="multiply" in2="effect3_dropShadow_207_12" result="effect4_dropShadow_207_12"/>
<feColorMatrix in="SourceAlpha" type="matrix" values="0 0 0 0 0 0 0 0 0 0 0 0 0 0 0 0 0 0 127 0" result="hardAlpha"/>
<feOffset dy="1.07196"/>
<feGaussianBlur stdDeviation="1.28906"/>
<feColorMatrix type="matrix" values="0 0 0 0 0.0509804 0 0 0 0 0.121569 0 0 0 0 0.396078 0 0 0 0.29 0"/>
<feBlend mode="overlay" in2="effect4_dropShadow_207_12" result="effect5_dropShadow_207_12"/>
<feColorMatrix in="SourceAlpha" type="matrix" values="0 0 0 0 0 0 0 0 0 0 0 0 0 0 0 0 0 0 127 0" result="hardAlpha"/>
<feOffset dy="2.83518"/>
<feGaussianBlur stdDeviation="2.26815"/>
<feColorMatrix type="matrix" values="0 0 0 0 0.0509804 0 0 0 0 0.121569 0 0 0 0 0.396078 0 0 0 0.45 0"/>
<feBlend mode="multiply" in2="effect5_dropShadow_207_12" result="effect6_dropShadow_207_12"/>
<feBlend mode="normal" in="SourceGraphic" in2="effect6_dropShadow_207_12" result="shape"/>
</filter>
<filter id="filter1_dddddd_207_12" x="36.9207" y="25.7129" width="17.4525" height="28.337" filterUnits="userSpaceOnUse" color-interpolation-filters="sRGB">
<feFlood flood-opacity="0" result="BackgroundImageFix"/>
<feColorMatrix in="SourceAlpha" type="matrix" values="0 0 0 0 0 0 0 0 0 0 0 0 0 0 0 0 0 0 127 0" result="hardAlpha"/>
<feOffset dy="0.155601"/>
<feGaussianBlur stdDeviation="0.057319"/>
<feColorMatrix type="matrix" values="0 0 0 0 0.0509804 0 0 0 0 0.121569 0 0 0 0 0.396078 0 0 0 0.189957 0"/>
<feBlend mode="multiply" in2="BackgroundImageFix" result="effect1_dropShadow_207_12"/>
<feColorMatrix in="SourceAlpha" type="matrix" values="0 0 0 0 0 0 0 0 0 0 0 0 0 0 0 0 0 0 127 0" result="hardAlpha"/>
<feOffset dy="0.305287"/>
<feGaussianBlur stdDeviation="0.127482"/>
<feColorMatrix type="matrix" values="0 0 0 0 0.0509804 0 0 0 0 0.121569 0 0 0 0 0.396078 0 0 0 0.368551 0"/>
<feBlend mode="multiply" in2="effect1_dropShadow_207_12" result="effect2_dropShadow_207_12"/>
<feColorMatrix in="SourceAlpha" type="matrix" values="0 0 0 0 0 0 0 0 0 0 0 0 0 0 0 0 0 0 127 0" result="hardAlpha"/>
<feOffset dy="0.469499"/>
<feGaussianBlur stdDeviation="0.21833"/>
<feColorMatrix type="matrix" values="0 0 0 0 0.0509804 0 0 0 0 0.121569 0 0 0 0 0.396078 0 0 0 0.3 0"/>
<feBlend mode="multiply" in2="effect2_dropShadow_207_12" result="effect3_dropShadow_207_12"/>
<feColorMatrix in="SourceAlpha" type="matrix" values="0 0 0 0 0 0 0 0 0 0 0 0 0 0 0 0 0 0 127 0" result="hardAlpha"/>
<feOffset dy="0.688904"/>
<feGaussianBlur stdDeviation="0.69336"/>
<feColorMatrix type="matrix" values="0 0 0 0 0.0509804 0 0 0 0 0.121569 0 0 0 0 0.396078 0 0 0 0.3 0"/>
<feBlend mode="multiply" in2="effect3_dropShadow_207_12" result="effect4_dropShadow_207_12"/>
<feColorMatrix in="SourceAlpha" type="matrix" values="0 0 0 0 0 0 0 0 0 0 0 0 0 0 0 0 0 0 127 0" result="hardAlpha"/>
<feOffset dy="1.07196"/>
<feGaussianBlur stdDeviation="1.28906"/>
<feColorMatrix type="matrix" values="0 0 0 0 0.0509804 0 0 0 0 0.121569 0 0 0 0 0.396078 0 0 0 0.29 0"/>
<feBlend mode="overlay" in2="effect4_dropShadow_207_12" result="effect5_dropShadow_207_12"/>
<feColorMatrix in="SourceAlpha" type="matrix" values="0 0 0 0 0 0 0 0 0 0 0 0 0 0 0 0 0 0 127 0" result="hardAlpha"/>
<feOffset dy="2.83518"/>
<feGaussianBlur stdDeviation="2.26815"/>
<feColorMatrix type="matrix" values="0 0 0 0 0.0509804 0 0 0 0 0.121569 0 0 0 0 0.396078 0 0 0 0.45 0"/>
<feBlend mode="multiply" in2="effect5_dropShadow_207_12" result="effect6_dropShadow_207_12"/>
<feBlend mode="normal" in="SourceGraphic" in2="effect6_dropShadow_207_12" result="shape"/>
</filter>
<linearGradient id="paint0_linear_207_12" x1="32.261" y1="11.0959" x2="32.261" y2="63.0648" gradientUnits="userSpaceOnUse">
<stop stop-color="#A4C1FF"/>
<stop offset="1" stop-color="#0E78F9"/>
</linearGradient>
<linearGradient id="paint1_linear_207_12" x1="27.344" y1="27.2251" x2="27.344" y2="46.8193" gradientUnits="userSpaceOnUse">
<stop stop-color="white"/>
<stop offset="1" stop-color="#C5D4F7"/>
</linearGradient>
<linearGradient id="paint2_linear_207_12" x1="27.3437" y1="27.225" x2="27.3437" y2="46.8192" gradientUnits="userSpaceOnUse">
<stop stop-color="white"/>
<stop offset="1" stop-color="#637ACA"/>
</linearGradient>
<linearGradient id="paint3_linear_207_12" x1="45.6468" y1="27.4141" x2="45.6468" y2="46.6783" gradientUnits="userSpaceOnUse">
<stop stop-color="white"/>
<stop offset="1" stop-color="#C5D4F7"/>
</linearGradient>
<linearGradient id="paint4_linear_207_12" x1="45.6465" y1="27.4142" x2="45.6465" y2="46.6784" gradientUnits="userSpaceOnUse">
<stop stop-color="white"/>
<stop offset="1" stop-color="#637ACA"/>
</linearGradient>
<clipPath id="clip0_207_12">
<rect width="200" height="75" fill="white"/>
</clipPath>
</defs>
</svg>
